<svg xmlns="http://www.w3.org/2000/svg" viewBox="0 0 128 128" width="128" height="128" role="img" aria-label="Mestakara" xmlns:c2pa="http://c2pa.org/manifest"><metadata><c2pa:manifest>AAAWgmp1bWIAAAAeanVtZGMycGEAEQAQgAAAqgA4m3EDYzJwYQAAABZcanVtYgAAAEdqdW1kYzJtYQARABCAAACqADibcQN1cm46YzJwYTo1YWU0MGY0Zi0yYTZhLTQ2OWMtYTNlNy0xM2IzNTA3Y2VjY2MAAAADl2p1bWIAAAApanVtZGMyYXMAEQAQgAAAqgA4m3EDYzJwYS5hc3NlcnRpb25zAAAAALxqdW1iAAAARGp1bWRjYm9yABEAEIAAAKoAOJtxE2MycGEuaW5ncmVkaWVudC52MwAAAAAYYzJzaLDjQslDkw+RaIHqGSHYKn4AAABwY2JvcqNpZGM6Zm9ybWF0bWltYWdlL3N2Zyt4bWxqaW5zdGFuY2VJRHgseG1wOmlpZDoxYjE1YjA3MS05ZWQ0LTRiZmEtYTA5NS02ZmNlOGM4OGMxYmZscmVsYXRpb25zaGlwaHBhcmVudE9mAAAB4mp1bWIAAABBanVtZGNib3IAEQAQgAAAqgA4m3ETYzJwYS5hY3Rpb25zLnYyAAAAABhjMnNo4Cv4XKugl6gJlnyzlbypogAAAZljYm9yomdhY3Rpb25zgqJmYWN0aW9ua2MycGEub3BlbmVkanBhcmFtZXRlcnOha2luZ3JlZGllbnRzgaJjdXJseC1zZWxmI2p1bWJmPWMycGEuYXNzZXJ0aW9ucy9jMnBhLmluZ3JlZGllbnQudjNkaGFzaFggseF1qz9IPsB1n5iStdYCTUz75gEXp0DQV0ozRyAuEqakZmFjdGlvbngdY29tLmFudGhyb3BpYy5jbGF1ZGUucHJvdmlkZWRqcGFyYW1ldGVyc6F4H2NvbS5hbnRocm9waWMub3JpZ2luLWNvbmZpZGVuY2VndW5rbm93bmtkZXNjcmlwdGlvbnhmQ2xhdWRlIHByb3ZpZGVkIHRoaXMgZmlsZSBhdCB0aGUgcmVxdWVzdCBvZiBhIHVzZXIgYW5kIG1heSBoYXZlIGNyZWF0ZWQgb3IgbW9kaWZpZWQgdGhlIGZpbGUgY29udGVudHMubXNvZnR3YXJlQWdlbnShZG5hbWVmQ2xhdWRlcmFsbEFjdGlvbnNJbmNsdWRlZPUAAADIanVtYgAAAEBqdW1kY2JvcgARABCAAACqADibcRNjMnBhLmhhc2guZGF0YQAAAAAYYzJzaFU8UmhZeY0FBwBRIqsk8QoAAACAY2JvcqVjYWxnZnNoYTI1NmNwYWRNAAAAAAAAAAAAAAAAAGRoYXNoWCC+2s+OJQf/y6xx8UoxtNbzd4cllmHo/yuEH/sFUXvnW2RuYW1lbmp1bWJmIG1hbmlmZXN0amV4Y2x1c2lvbnOBomVzdGFydBi4Zmxlbmd0aBkeBAAAAj5qdW1iAAAAJ2p1bWRjMmNsABEAEIAAAKoAOJtxA2MycGEuY2xhaW0udjIAAAACD2Nib3KlY2FsZ2ZzaGEyNTZpc2lnbmF0dXJleE1zZWxmI2p1bWJmPS9jMnBhL3VybjpjMnBhOjVhZTQwZjRmLTJhNmEtNDY5Yy1hM2U3LTEzYjM1MDdjZWNjYy9jMnBhLnNpZ25hdHVyZWppbnN0YW5jZUlEeCx4bXA6aWlkOjMwODhlZTYyLTc3NGItNGE1OS04Njg0LWI4NThjZTlhNzJiNHJjcmVhdGVkX2Fzc2VydGlvbnODomN1cmx4LXNlbGYjanVtYmY9YzJwYS5hc3NlcnRpb25zL2MycGEuaW5ncmVkaWVudC52M2RoYXNoWCCx4XWrP0g+wHWfmJK11gJNTPvmARenQNBXSjNHIC4SpqJjdXJseCpzZWxmI2p1bWJmPWMycGEuYXNzZXJ0aW9ucy9jMnBhLmFjdGlvbnMudjJkaGFzaFggPbzN5JqRQLbXTwxMArVzb8aCtkbMOC0FZTaBuGcKbMKiY3VybHgpc2VsZiNqdW1iZj1jMnBhLmFzc2VydGlvbnMvYzJwYS5oYXNoLmRhdGFkaGFzaFggoqUaBMumvLqf30xR1XEGl1ckL8lha0H7NmSFToJD4ld0Y2xhaW1fZ2VuZXJhdG9yX2luZm+jZG5hbWVvQW50aHJvcGljIEZpbGVzZ3ZlcnNpb25lMS4wLjBrc3BlY1ZlcnNpb25lMi40LjAAABA4anVtYgAAAChqdW1kYzJjcwARABCAAACqADibcQNjMnBhLnNpZ25hdHVyZQAAABAIY2JvctKEWQISogEmGCFZAgowggIGMIIBjaADAgECAhRA5aAK7sI50L64g/oGQgU9Z1UTADAKBggqhkjOPQQDAzBJMRcwFQYDVQQKEw5BbnRocm9waWMsIFBCQzEuMCwGA1UEAxMlQW50aHJvcGljIENvbnRlbnQgQ3JlZGVudGlhbHMgUm9vdCBDQTAeFw0yNjA4MDcxODQzNTZaFw0yODA4MDYxOTQzNTZaMEQxFzAVBgNVBAoTDkFudGhyb3BpYywgUEJDMSkwJwYDVQQDEyBBbnRocm9waWMgQ2xhdWRlIENvbnRlbnQgU2lnbmluZzBZMBMGByqGSM49AgEGCCqGSM49AwEHA0IABJh6CmvLUBgFFNU0vUKlOVtE6djd17L5SuwX0LemFisBM3dkd/3cyjxFA3Qo5S46fX0/ihY0VZ7mfb9KF703t5OjWDBWMA4GA1UdDwEB/wQEAwIHgDAVBgNVHSUEDjAMBgorBgEEAYPoXgIBMAwGA1UdEwEB/wQCMAAwHwYDVR0jBBgwFoAUzlHiBIFOZFsj+OPEz5o+nMHXXMIwCgYIKoZIzj0EAwMDZwAwZAIwMXMdFJ4BetLLVY7ORuE9noqbbAZOZn/aArXyTwFAZfKrPzxF2vPoJNf1+UCdg1XGAjBwX1zd9WGqYkqmL5SFqw1QySjr1zJfpJM9+1rdDwSPLMOPOjKuiXjoU/pUUeG9RwmhY3BhZFkNngAAAAAAAAAAAAAAAAAAAAAAAAAAAAAAAAAAAAAAAAAAAAAAAAAAAAAAAAAAAAAAAAAAAAAAAAAAAAAAAAAAAAAAAAAAAAAAAAAAAAAAAAAAAAAAAAAAAAAAAAAAAAAAAAAAAAAAAAAAAAAAAAAAAAAAAAAAAAAAAAAAAAAAAAAAAAAAAAAAAAAAAAAAAAAAAAAAAAAAAAAAAAAAAAAAAAAAAAAAAAAAAAAAAAAAAAAAAAAAAAAAAAAAAAAAAAAAAAAAAAAAAAAAAAAAAAAAAAAAAAAAAAAAAAAAAAAAAAAAAAAAAAAAAAAAAAAAAAAAAAAAAAAAAAAAAAAAAAAAAAAAAAAAAAAAAAAAAAAAAAAAAAAAAAAAAAAAAAAAAAAAAAAAAAAAAAAAAAAAAAAAAAAAAAAAAAAAAAAAAAAAAAAAAAAAAAAAAAAAAAAAAAAAAAAAAAAAAAAAAAAAAAAAAAAAAAAAAAAAAAAAAAAAAAAAAAAAAAAAAAAAAAAAAAAAAAAAAAAAAAAAAAAAAAAAAAAAAAAAAAAAAAAAAAAAAAAAAAAAAAAAAAAAAAAAAAAAAAAAAAAAAAAAAAAAAAAAAAAAAAAAAAAAAAAAAAAAAAAAAAAAAAAAAAAAAAAAAAAAAAAAAAAAAAAAAAAAAAAAAAAAAAAAAAAAAAAAAAAAAAAAAAAAAAAAAAAAAAAAAAAAAAAAAAAAAAAAAAAAAAAAAAAAAAAAAAAAAAAAAAAAAAAAAAAAAAAAAAAAAAAAAAAAAAAAAAAAAAAAAAAAAAAAAAAAAAAAAAAAAAAAAAAAAAAAAAAAAAAAAAAAAAAAAAAAAAAAAAAAAAAAAAAAAAAAAAAAAAAAAAAAAAAAAAAAAAAAAAAAAAAAAAAAAAAAAAAAAAAAAAAAAAAAAAAAAAAAAAAAAAAAAAAAAAAAAAAAAAAAAAAAAAAAAAAAAAAAAAAAAAAAAAAAAAAAAAAAAAAAAAAAAAAAAAAAAAAAAAAAAAAAAAAAAAAAAAAAAAAAAAAAAAAAAAAAAAAAAAAAAAAAAAAAAAAAAAAAAAAAAAAAAAAAAAAAAAAAAAAAAAAAAAAAAAAAAAAAAAAAAAAAAAAAAAAAAAAAAAAAAAAAAAAAAAAAAAAAAAAAAAAAAAAAAAAAAAAAAAAAAAAAAAAAAAAAAAAAAAAAAAAAAAAAAAAAAAAAAAAAAAAAAAAAAAAAAAAAAAAAAAAAAAAAAAAAAAAAAAAAAAAAAAAAAAAAAAAAAAAAAAAAAAAAAAAAAAAAAAAAAAAAAAAAAAAAAAAAAAAAAAAAAAAAAAAAAAAAAAAAAAAAAAAAAAAAAAAAAAAAAAAAAAAAAAAAAAAAAAAAAAAAAAAAAAAAAAAAAAAAAAAAAAAAAAAAAAAAAAAAAAAAAAAAAAAAAAAAAAAAAAAAAAAAAAAAAAAAAAAAAAAAAAAAAAAAAAAAAAAAAAAAAAAAAAAAAAAAAAAAAAAAAAAAAAAAAAAAAAAAAAAAAAAAAAAAAAAAAAAAAAAAAAAAAAAAAAAAAAAAAAAAAAAAAAAAAAAAAAAAAAAAAAAAAAAAAAAAAAAAAAAAAAAAAAAAAAAAAAAAAAAAAAAAAAAAAAAAAAAAAAAAAAAAAAAAAAAAAAAAAAAAAAAAAAAAAAAAAAAAAAAAAAAAAAAAAAAAAAAAAAAAAAAAAAAAAAAAAAAAAAAAAAAAAAAAAAAAAAAAAAAAAAAAAAAAAAAAAAAAAAAAAAAAAAAAAAAAAAAAAAAAAAAAAAAAAAAAAAAAAAAAAAAAAAAAAAAAAAAAAAAAAAAAAAAAAAAAAAAAAAAAAAAAAAAAAAAAAAAAAAAAAAAAAAAAAAAAAAAAAAAAAAAAAAAAAAAAAAAAAAAAAAAAAAAAAAAAAAAAAAAAAAAAAAAAAAAAAAAAAAAAAAAAAAAAAAAAAAAAAAAAAAAAAAAAAAAAAAAAAAAAAAAAAAAAAAAAAAAAAAAAAAAAAAAAAAAAAAAAAAAAAAAAAAAAAAAAAAAAAAAAAAAAAAAAAAAAAAAAAAAAAAAAAAAAAAAAAAAAAAAAAAAAAAAAAAAAAAAAAAAAAAAAAAAAAAAAAAAAAAAAAAAAAAAAAAAAAAAAAAAAAAAAAAAAAAAAAAAAAAAAAAAAAAAAAAAAAAAAAAAAAAAAAAAAAAAAAAAAAAAAAAAAAAAAAAAAAAAAAAAAAAAAAAAAAAAAAAAAAAAAAAAAAAAAAAAAAAAAAAAAAAAAAAAAAAAAAAAAAAAAAAAAAAAAAAAAAAAAAAAAAAAAAAAAAAAAAAAAAAAAAAAAAAAAAAAAAAAAAAAAAAAAAAAAAAAAAAAAAAAAAAAAAAAAAAAAAAAAAAAAAAAAAAAAAAAAAAAAAAAAAAAAAAAAAAAAAAAAAAAAAAAAAAAAAAAAAAAAAAAAAAAAAAAAAAAAAAAAAAAAAAAAAAAAAAAAAAAAAAAAAAAAAAAAAAAAAAAAAAAAAAAAAAAAAAAAAAAAAAAAAAAAAAAAAAAAAAAAAAAAAAAAAAAAAAAAAAAAAAAAAAAAAAAAAAAAAAAAAAAAAAAAAAAAAAAAAAAAAAAAAAAAAAAAAAAAAAAAAAAAAAAAAAAAAAAAAAAAAAAAAAAAAAAAAAAAAAAAAAAAAAAAAAAAAAAAAAAAAAAAAAAAAAAAAAAAAAAAAAAAAAAAAAAAAAAAAAAAAAAAAAAAAAAAAAAAAAAAAAAAAAAAAAAAAAAAAAAAAAAAAAAAAAAAAAAAAAAAAAAAAAAAAAAAAAAAAAAAAAAAAAAAAAAAAAAAAAAAAAAAAAAAAAAAAAAAAAAAAAAAAAAAAAAAAAAAAAAAAAAAAAAAAAAAAAAAAAAAAAAAAAAAAAAAAAAAAAAAAAAAAAAAAAAAAAAAAAAAAAAAAAAAAAAAAAAAAAAAAAAAAAAAAAAAAAAAAAAAAAAAAAAAAAAAAAAAAAAAAAAAAAAAAAAAAAAAAAAAAAAAAAAAAAAAAAAAAAAAAAAAAAAAAAAAAAAAAAAAAAAAAAAAAAAAAAAAAAAAAAAAAAAAAAAAAAAAAAAAAAAAAAAAAAAAAAAAAAAAAAAAAAAAAAAAAAAAAAAAAAAAAAAAAAAAAAAAAAAAAAAAAAAAAAAAAAAAAAAAAAAAAAAAAAAAAAAAAAAAAAAAAAAAAAAAAAAAAAAAAAAAAAAAAAAAAAAAAAAAAAAAAAAAAAAAAAAAAAAAAAAAAAAAAAAAAAAAAAAAAAAAAAAAAAAAAAAAAAAAAAAAAAAAAAAAAAAAAAAAAAAAAAAAAAAAAAAAAAAAAAAAAAAAAAAAAAAAAAAAAAAAAAAAAAAAAAAAAAAAAAAAAAAAAAAAAAAAAAAAAAAAAAAAAAAAAAAAAAAAAAAAAAAAAAAAAAAAAAAAAAAAAAAAAAAAAAAAAAAAAAAAAAAAAAAAAAAAAAAAAAAAAAAAAAAAAAAAAAAAAAAAAAAAAAAAAAAAAAAAAAAAAAAAAAAAAAAAAAAAAAAAAAAAAAAAAAAAAAAAAAAAAAAAAAAAAAAAAAAAAAAAAAAAAAAAAAAAAAAAAAAAAAAAAAAAAAAAAAAAAAAAAAAAAAAAAAAAAAAAAAAAAAAAAAAAAAAAAAAAAAAAAAAAAAAAAAAAAAAAAAAAAAAAAAAAAAAAAAAAAAAAAAAAAAAAAAAAAAAAAAAAAAAAAAAAAAAAAAAAAAAAAAAAAAAAAAAAAAAAAAAAAAAAAAAAAAAAAAAAAAAAAAAAAAAAAAAAAAAAAAAAAAAAAAAAAAAAAAAAAAAAAAAAAAAAAAAAAAAAAAAAAAAAAAAAAAAAAAAAAAAAAAAAAAAAAAAAAAAAAAAAAAAAAAAAAAAAAAAAAAAAAAAAAAAAAAAAAAAAAAAAAAAAAAAAAAAAAAAAAAAAAAAAAAAAAAAAAAAAAAAAAAAAAAAAAAAAAAAAAAAAAAAAAAAAAAAAAAAAAAAAAAAAAAAAAAAAAAAAAAAAAAAAAAAAAAAAAAAAAAAAAAAAAAAAAAAAAAAAAAAAAAAAAAAAAAAAAAAAAAAAAAAAAAAAAAAAAAAAAAAAAAAAAAAAAAAAAAAAAAAAAAAAAAAAAAAAAAAAAAAAAAAAAAAAAAAAAAAAAAAAAAAAAAAAAAAAAAAAAAAAAAAAAAAAAAAAAAAAAAAAAAAAAAAAAAAAAAAAAAAAAAAAAAAAAAAAAAAAAAAAAAAAAAAAAAAAAAAAAAAAAAAAAAAAAAAAAAAAAAAAAAAAAAAAAAAAAAAAAAAAAAAAAAAAAAAAAAAAAAAAAAAAAAAAAAAAAAAAAAAAAAAAAAAAAAAAAAAAAAAAAAAAAAAAAAAAAAAAAAAAAAAAAAAAAAAAAAAAAAAAAAAAAAAAAAAAAAAAAAAAAAAAAAAAAAAAAAAAAAAAAAAAAAAAAAAAAAAAAAAAAAAAAAAAAAAAAAAAAAAAAAAAAAAAAAAAAAAAAAAAAAAAAAAAAAAAAAAAAAAAAAAAAAAAAAAAAAAAAAAAAAAAAAAAAAAAAAAAAAAAAAAAAAAAAAAAAAAAAAAAAAAAAAAAAAAAAAAAAAAAAAAAAAAAAAAAAAAAAAAAAAAAAAAAAAAAAAAAAAAAAAAAAAAAAAAAAAAAAAAAAAAAAAAAAAAAAAAAAAAAAAAAAPZYQL8fxOZHzOGxVyXbpCsp88VgS4lIKNhyF8KkwcAqKFqtp2oQFGRMjW3LjlL9Sv/6oFZNveSrPj6YD0zo0Hq6SQs=</c2pa:manifest></metadata><title>Mestakara</title><rect width="128" height="128" rx="32" fill="#fcfbf8"/><g transform="translate(14 12) scale(.78)"><defs><mask id="a-0" maskUnits="userSpaceOnUse" x="0" y="0" width="128" height="128"><path d="M14 112V46C14 28 27 16 43 16C53 16 59.5 23 62.5 32.4A25 25 0 0 1 111 41V112H86L64 64L42 112Z" fill="#fff"/><path d="M0 45L64 45L64 70L0 70Z" fill="#000" stroke="#000" stroke-width="2.6" stroke-linejoin="round"/><circle cx="86" cy="41" r="25" fill="#000" stroke="#000" stroke-width="2.6" stroke-linejoin="round"/><path d="M-4 66C24 63 48 69 68 78L68 140L-4 140Z" fill="#000" stroke="#000" stroke-width="2.6" stroke-linejoin="round"/><path d="M-4 76.5C24 73.5 48 79.5 68 88.5L68 140L-4 140Z" fill="#000" stroke="#000" stroke-width="2.6" stroke-linejoin="round"/><path d="M-4 87C24 84 48 90 68 99L68 140L-4 140Z" fill="#000" stroke="#000" stroke-width="2.6" stroke-linejoin="round"/><path d="M-4 97.5C24 94.5 48 100.5 68 109.5L68 140L-4 140Z" fill="#000" stroke="#000" stroke-width="2.6" stroke-linejoin="round"/><path d="M-4 108C24 105 48 111 68 120L68 140L-4 140Z" fill="#000" stroke="#000" stroke-width="2.6" stroke-linejoin="round"/><path d="M86 117C97.13 93.52 80.16 77.88 66 74C59.84 87.32 60.87 110.38 86 117Z" fill="#000" stroke="#000" stroke-width="2.6" stroke-linejoin="round"/><path d="M108 117C131.46 107.33 128.39 85.61 120 74C106.81 79.59 92.94 96.57 108 117Z" fill="#000" stroke="#000" stroke-width="2.6" stroke-linejoin="round"/><path d="M97 118C114.29 99 104.27 77.16 93 68C83.33 78.84 76.91 102 97 118Z" fill="#000" stroke="#000" stroke-width="2.6" stroke-linejoin="round"/></mask><mask id="a-1" maskUnits="userSpaceOnUse" x="0" y="0" width="128" height="128"><path d="M14 112V46C14 28 27 16 43 16C53 16 59.5 23 62.5 32.4A25 25 0 0 1 111 41V112H86L64 64L42 112Z" fill="#fff"/><path d="M0 45L64 45L64 70L0 70Z" fill="#000" stroke="#000" stroke-width="2.6" stroke-linejoin="round"/><circle cx="86" cy="41" r="25" fill="#000" stroke="#000" stroke-width="2.6" stroke-linejoin="round"/><path d="M-4 66C24 63 48 69 68 78L68 140L-4 140Z" fill="#000" stroke="#000" stroke-width="2.6" stroke-linejoin="round"/><path d="M-4 76.5C24 73.5 48 79.5 68 88.5L68 140L-4 140Z" fill="#000" stroke="#000" stroke-width="2.6" stroke-linejoin="round"/><path d="M-4 87C24 84 48 90 68 99L68 140L-4 140Z" fill="#000" stroke="#000" stroke-width="2.6" stroke-linejoin="round"/><path d="M-4 97.5C24 94.5 48 100.5 68 109.5L68 140L-4 140Z" fill="#000" stroke="#000" stroke-width="2.6" stroke-linejoin="round"/><path d="M-4 108C24 105 48 111 68 120L68 140L-4 140Z" fill="#000" stroke="#000" stroke-width="2.6" stroke-linejoin="round"/><path d="M86 117C97.13 93.52 80.16 77.88 66 74C59.84 87.32 60.87 110.38 86 117Z" fill="#000" stroke="#000" stroke-width="2.6" stroke-linejoin="round"/><path d="M108 117C131.46 107.33 128.39 85.61 120 74C106.81 79.59 92.94 96.57 108 117Z" fill="#000" stroke="#000" stroke-width="2.6" stroke-linejoin="round"/><path d="M97 118C114.29 99 104.27 77.16 93 68C83.33 78.84 76.91 102 97 118Z" fill="#000" stroke="#000" stroke-width="2.6" stroke-linejoin="round"/></mask><mask id="a-2" maskUnits="userSpaceOnUse" x="0" y="0" width="128" height="128"><path d="M14 112V46C14 28 27 16 43 16C53 16 59.5 23 62.5 32.4A25 25 0 0 1 111 41V112H86L64 64L42 112Z" fill="#fff"/><path d="M0 45L64 45L64 70L0 70Z" fill="#000" stroke="#000" stroke-width="2.6" stroke-linejoin="round"/><circle cx="86" cy="41" r="25" fill="#000" stroke="#000" stroke-width="2.6" stroke-linejoin="round"/><path d="M-4 66C24 63 48 69 68 78L68 140L-4 140Z" fill="#000" stroke="#000" stroke-width="2.6" stroke-linejoin="round"/><path d="M-4 76.5C24 73.5 48 79.5 68 88.5L68 140L-4 140Z" fill="#000" stroke="#000" stroke-width="2.6" stroke-linejoin="round"/><path d="M-4 87C24 84 48 90 68 99L68 140L-4 140Z" fill="#000" stroke="#000" stroke-width="2.6" stroke-linejoin="round"/><path d="M-4 97.5C24 94.5 48 100.5 68 109.5L68 140L-4 140Z" fill="#000" stroke="#000" stroke-width="2.6" stroke-linejoin="round"/><path d="M-4 108C24 105 48 111 68 120L68 140L-4 140Z" fill="#000" stroke="#000" stroke-width="2.6" stroke-linejoin="round"/><path d="M86 117C97.13 93.52 80.16 77.88 66 74C59.84 87.32 60.87 110.38 86 117Z" fill="#000" stroke="#000" stroke-width="2.6" stroke-linejoin="round"/><path d="M108 117C131.46 107.33 128.39 85.61 120 74C106.81 79.59 92.94 96.57 108 117Z" fill="#000" stroke="#000" stroke-width="2.6" stroke-linejoin="round"/><path d="M97 118C114.29 99 104.27 77.16 93 68C83.33 78.84 76.91 102 97 118Z" fill="#000" stroke="#000" stroke-width="2.6" stroke-linejoin="round"/></mask><mask id="a-3" maskUnits="userSpaceOnUse" x="0" y="0" width="128" height="128"><path d="M14 112V46C14 28 27 16 43 16C53 16 59.5 23 62.5 32.4A25 25 0 0 1 111 41V112H86L64 64L42 112Z" fill="#fff"/><path d="M0 45L64 45L64 70L0 70Z" fill="#000" stroke="#000" stroke-width="2.6" stroke-linejoin="round"/><circle cx="86" cy="41" r="25" fill="#000" stroke="#000" stroke-width="2.6" stroke-linejoin="round"/><path d="M-4 66C24 63 48 69 68 78L68 140L-4 140Z" fill="#000" stroke="#000" stroke-width="2.6" stroke-linejoin="round"/><path d="M-4 76.5C24 73.5 48 79.5 68 88.5L68 140L-4 140Z" fill="#000" stroke="#000" stroke-width="2.6" stroke-linejoin="round"/><path d="M-4 87C24 84 48 90 68 99L68 140L-4 140Z" fill="#000" stroke="#000" stroke-width="2.6" stroke-linejoin="round"/><path d="M-4 97.5C24 94.5 48 100.5 68 109.5L68 140L-4 140Z" fill="#000" stroke="#000" stroke-width="2.6" stroke-linejoin="round"/><path d="M-4 108C24 105 48 111 68 120L68 140L-4 140Z" fill="#000" stroke="#000" stroke-width="2.6" stroke-linejoin="round"/><path d="M86 117C97.13 93.52 80.16 77.88 66 74C59.84 87.32 60.87 110.38 86 117Z" fill="#000" stroke="#000" stroke-width="2.6" stroke-linejoin="round"/><path d="M108 117C131.46 107.33 128.39 85.61 120 74C106.81 79.59 92.94 96.57 108 117Z" fill="#000" stroke="#000" stroke-width="2.6" stroke-linejoin="round"/><path d="M97 118C114.29 99 104.27 77.16 93 68C83.33 78.84 76.91 102 97 118Z" fill="#000" stroke="#000" stroke-width="2.6" stroke-linejoin="round"/></mask><mask id="a-4" maskUnits="userSpaceOnUse" x="0" y="0" width="128" height="128"><path d="M14 112V46C14 28 27 16 43 16C53 16 59.5 23 62.5 32.4A25 25 0 0 1 111 41V112H86L64 64L42 112Z" fill="#fff"/><circle cx="86" cy="41" r="25" fill="#000" stroke="#000" stroke-width="2.6" stroke-linejoin="round"/><path d="M-4 66C24 63 48 69 68 78L68 140L-4 140Z" fill="#000" stroke="#000" stroke-width="2.6" stroke-linejoin="round"/><path d="M-4 76.5C24 73.5 48 79.5 68 88.5L68 140L-4 140Z" fill="#000" stroke="#000" stroke-width="2.6" stroke-linejoin="round"/><path d="M-4 87C24 84 48 90 68 99L68 140L-4 140Z" fill="#000" stroke="#000" stroke-width="2.6" stroke-linejoin="round"/><path d="M-4 97.5C24 94.5 48 100.5 68 109.5L68 140L-4 140Z" fill="#000" stroke="#000" stroke-width="2.6" stroke-linejoin="round"/><path d="M-4 108C24 105 48 111 68 120L68 140L-4 140Z" fill="#000" stroke="#000" stroke-width="2.6" stroke-linejoin="round"/><path d="M86 117C97.13 93.52 80.16 77.88 66 74C59.84 87.32 60.87 110.38 86 117Z" fill="#000" stroke="#000" stroke-width="2.6" stroke-linejoin="round"/><path d="M108 117C131.46 107.33 128.39 85.61 120 74C106.81 79.59 92.94 96.57 108 117Z" fill="#000" stroke="#000" stroke-width="2.6" stroke-linejoin="round"/><path d="M97 118C114.29 99 104.27 77.16 93 68C83.33 78.84 76.91 102 97 118Z" fill="#000" stroke="#000" stroke-width="2.6" stroke-linejoin="round"/><path d="M20 61L29 50.5C30.5 48.8 32.2 48.8 33.6 50.5L37 54.5L39.4 52.2C40.4 51.3 41.6 51.3 42.6 52.3L52 61Z" fill="#000"/></mask><mask id="a-5" maskUnits="userSpaceOnUse" x="0" y="0" width="128" height="128"><path d="M14 112V46C14 28 27 16 43 16C53 16 59.5 23 62.5 32.4A25 25 0 0 1 111 41V112H86L64 64L42 112Z" fill="#fff"/><path d="M-4 66C24 63 48 69 68 78L68 140L-4 140Z" fill="#000" stroke="#000" stroke-width="2.6" stroke-linejoin="round"/><path d="M-4 76.5C24 73.5 48 79.5 68 88.5L68 140L-4 140Z" fill="#000" stroke="#000" stroke-width="2.6" stroke-linejoin="round"/><path d="M-4 87C24 84 48 90 68 99L68 140L-4 140Z" fill="#000" stroke="#000" stroke-width="2.6" stroke-linejoin="round"/><path d="M-4 97.5C24 94.5 48 100.5 68 109.5L68 140L-4 140Z" fill="#000" stroke="#000" stroke-width="2.6" stroke-linejoin="round"/><path d="M-4 108C24 105 48 111 68 120L68 140L-4 140Z" fill="#000" stroke="#000" stroke-width="2.6" stroke-linejoin="round"/><path d="M86 117C97.13 93.52 80.16 77.88 66 74C59.84 87.32 60.87 110.38 86 117Z" fill="#000" stroke="#000" stroke-width="2.6" stroke-linejoin="round"/><path d="M108 117C131.46 107.33 128.39 85.61 120 74C106.81 79.59 92.94 96.57 108 117Z" fill="#000" stroke="#000" stroke-width="2.6" stroke-linejoin="round"/><path d="M97 118C114.29 99 104.27 77.16 93 68C83.33 78.84 76.91 102 97 118Z" fill="#000" stroke="#000" stroke-width="2.6" stroke-linejoin="round"/></mask><mask id="a-6" maskUnits="userSpaceOnUse" x="0" y="0" width="128" height="128"><path d="M14 112V46C14 28 27 16 43 16C53 16 59.5 23 62.5 32.4A25 25 0 0 1 111 41V112H86L64 64L42 112Z" fill="#fff"/><path d="M-4 76.5C24 73.5 48 79.5 68 88.5L68 140L-4 140Z" fill="#000" stroke="#000" stroke-width="2.6" stroke-linejoin="round"/><path d="M-4 87C24 84 48 90 68 99L68 140L-4 140Z" fill="#000" stroke="#000" stroke-width="2.6" stroke-linejoin="round"/><path d="M-4 97.5C24 94.5 48 100.5 68 109.5L68 140L-4 140Z" fill="#000" stroke="#000" stroke-width="2.6" stroke-linejoin="round"/><path d="M-4 108C24 105 48 111 68 120L68 140L-4 140Z" fill="#000" stroke="#000" stroke-width="2.6" stroke-linejoin="round"/><path d="M86 117C97.13 93.52 80.16 77.88 66 74C59.84 87.32 60.87 110.38 86 117Z" fill="#000" stroke="#000" stroke-width="2.6" stroke-linejoin="round"/><path d="M108 117C131.46 107.33 128.39 85.61 120 74C106.81 79.59 92.94 96.57 108 117Z" fill="#000" stroke="#000" stroke-width="2.6" stroke-linejoin="round"/><path d="M97 118C114.29 99 104.27 77.16 93 68C83.33 78.84 76.91 102 97 118Z" fill="#000" stroke="#000" stroke-width="2.6" stroke-linejoin="round"/></mask><mask id="a-7" maskUnits="userSpaceOnUse" x="0" y="0" width="128" height="128"><path d="M14 112V46C14 28 27 16 43 16C53 16 59.5 23 62.5 32.4A25 25 0 0 1 111 41V112H86L64 64L42 112Z" fill="#fff"/><path d="M-4 87C24 84 48 90 68 99L68 140L-4 140Z" fill="#000" stroke="#000" stroke-width="2.6" stroke-linejoin="round"/><path d="M-4 97.5C24 94.5 48 100.5 68 109.5L68 140L-4 140Z" fill="#000" stroke="#000" stroke-width="2.6" stroke-linejoin="round"/><path d="M-4 108C24 105 48 111 68 120L68 140L-4 140Z" fill="#000" stroke="#000" stroke-width="2.6" stroke-linejoin="round"/><path d="M86 117C97.13 93.52 80.16 77.88 66 74C59.84 87.32 60.87 110.38 86 117Z" fill="#000" stroke="#000" stroke-width="2.6" stroke-linejoin="round"/><path d="M108 117C131.46 107.33 128.39 85.61 120 74C106.81 79.59 92.94 96.57 108 117Z" fill="#000" stroke="#000" stroke-width="2.6" stroke-linejoin="round"/><path d="M97 118C114.29 99 104.27 77.16 93 68C83.33 78.84 76.91 102 97 118Z" fill="#000" stroke="#000" stroke-width="2.6" stroke-linejoin="round"/></mask><mask id="a-8" maskUnits="userSpaceOnUse" x="0" y="0" width="128" height="128"><path d="M14 112V46C14 28 27 16 43 16C53 16 59.5 23 62.5 32.4A25 25 0 0 1 111 41V112H86L64 64L42 112Z" fill="#fff"/><path d="M-4 97.5C24 94.5 48 100.5 68 109.5L68 140L-4 140Z" fill="#000" stroke="#000" stroke-width="2.6" stroke-linejoin="round"/><path d="M-4 108C24 105 48 111 68 120L68 140L-4 140Z" fill="#000" stroke="#000" stroke-width="2.6" stroke-linejoin="round"/><path d="M86 117C97.13 93.52 80.16 77.88 66 74C59.84 87.32 60.87 110.38 86 117Z" fill="#000" stroke="#000" stroke-width="2.6" stroke-linejoin="round"/><path d="M108 117C131.46 107.33 128.39 85.61 120 74C106.81 79.59 92.94 96.57 108 117Z" fill="#000" stroke="#000" stroke-width="2.6" stroke-linejoin="round"/><path d="M97 118C114.29 99 104.27 77.16 93 68C83.33 78.84 76.91 102 97 118Z" fill="#000" stroke="#000" stroke-width="2.6" stroke-linejoin="round"/></mask><mask id="a-9" maskUnits="userSpaceOnUse" x="0" y="0" width="128" height="128"><path d="M14 112V46C14 28 27 16 43 16C53 16 59.5 23 62.5 32.4A25 25 0 0 1 111 41V112H86L64 64L42 112Z" fill="#fff"/><path d="M-4 108C24 105 48 111 68 120L68 140L-4 140Z" fill="#000" stroke="#000" stroke-width="2.6" stroke-linejoin="round"/><path d="M86 117C97.13 93.52 80.16 77.88 66 74C59.84 87.32 60.87 110.38 86 117Z" fill="#000" stroke="#000" stroke-width="2.6" stroke-linejoin="round"/><path d="M108 117C131.46 107.33 128.39 85.61 120 74C106.81 79.59 92.94 96.57 108 117Z" fill="#000" stroke="#000" stroke-width="2.6" stroke-linejoin="round"/><path d="M97 118C114.29 99 104.27 77.16 93 68C83.33 78.84 76.91 102 97 118Z" fill="#000" stroke="#000" stroke-width="2.6" stroke-linejoin="round"/></mask><mask id="a-10" maskUnits="userSpaceOnUse" x="0" y="0" width="128" height="128"><path d="M14 112V46C14 28 27 16 43 16C53 16 59.5 23 62.5 32.4A25 25 0 0 1 111 41V112H86L64 64L42 112Z" fill="#fff"/><path d="M86 117C97.13 93.52 80.16 77.88 66 74C59.84 87.32 60.87 110.38 86 117Z" fill="#000" stroke="#000" stroke-width="2.6" stroke-linejoin="round"/><path d="M108 117C131.46 107.33 128.39 85.61 120 74C106.81 79.59 92.94 96.57 108 117Z" fill="#000" stroke="#000" stroke-width="2.6" stroke-linejoin="round"/><path d="M97 118C114.29 99 104.27 77.16 93 68C83.33 78.84 76.91 102 97 118Z" fill="#000" stroke="#000" stroke-width="2.6" stroke-linejoin="round"/></mask><mask id="a-11" maskUnits="userSpaceOnUse" x="0" y="0" width="128" height="128"><path d="M14 112V46C14 28 27 16 43 16C53 16 59.5 23 62.5 32.4A25 25 0 0 1 111 41V112H86L64 64L42 112Z" fill="#fff"/><path d="M108 117C131.46 107.33 128.39 85.61 120 74C106.81 79.59 92.94 96.57 108 117Z" fill="#000" stroke="#000" stroke-width="2.6" stroke-linejoin="round"/><path d="M97 118C114.29 99 104.27 77.16 93 68C83.33 78.84 76.91 102 97 118Z" fill="#000" stroke="#000" stroke-width="2.6" stroke-linejoin="round"/><path d="M83.6 111.84L69.6 81.74M78.4 100.66L86.48 89.58M75 93.35L61.32 92.39M76 95.5L84.08 84.42M72.4 87.76L58.72 86.8" fill="none" stroke="#000" stroke-width="1.6" stroke-linecap="round"/></mask><mask id="a-12" maskUnits="userSpaceOnUse" x="0" y="0" width="128" height="128"><path d="M14 112V46C14 28 27 16 43 16C53 16 59.5 23 62.5 32.4A25 25 0 0 1 111 41V112H86L64 64L42 112Z" fill="#fff"/><path d="M97 118C114.29 99 104.27 77.16 93 68C83.33 78.84 76.91 102 97 118Z" fill="#000" stroke="#000" stroke-width="2.6" stroke-linejoin="round"/><path d="M109.44 111.84L117.84 81.74M112.56 100.66L125.8 97.87M114.6 93.35L104.72 84.1M114 95.5L127.24 92.71M116.16 87.76L106.28 78.51" fill="none" stroke="#000" stroke-width="1.6" stroke-linecap="round"/></mask><mask id="a-13" maskUnits="userSpaceOnUse" x="0" y="0" width="128" height="128"><path d="M14 112V46C14 28 27 16 43 16C53 16 59.5 23 62.5 32.4A25 25 0 0 1 111 41V112H86L64 64L42 112Z" fill="#fff"/><path d="M96.52 112L93.72 77M95.48 99L106.13 91.1M94.8 90.5L83.03 84.4M95 93L105.65 85.1M94.28 84L82.51 77.9" fill="none" stroke="#000" stroke-width="1.6" stroke-linecap="round"/></mask></defs><path d="M86 41L-32.83 57.7A120 120 0 0 1 -33.11 26.38Z" fill="#db6f12" mask="url(#a-0)"/><path d="M86 41L-31.99 19.13A120 120 0 0 1 -22.76 -9.71Z" fill="#f58a2b" mask="url(#a-1)"/><path d="M86 41L-19.46 -16.26A120 120 0 0 1 1.15 -43.85Z" fill="#db6f12" mask="url(#a-2)"/><path d="M86 41L6.49 -48.87A120 120 0 0 1 48.92 -73.13Z" fill="#f58a2b" mask="url(#a-3)"/><path d="M0 45L64 45L64 70L0 70Z" fill="#5bb3e4" mask="url(#a-4)"/><circle cx="86" cy="41" r="25" fill="#f58a2b" mask="url(#a-5)"/><path d="M-4 66C24 63 48 69 68 78L68 140L-4 140Z" fill="#158c40" mask="url(#a-6)"/><path d="M-4 76.5C24 73.5 48 79.5 68 88.5L68 140L-4 140Z" fill="#1baa4e" mask="url(#a-7)"/><path d="M-4 87C24 84 48 90 68 99L68 140L-4 140Z" fill="#158c40" mask="url(#a-8)"/><path d="M-4 97.5C24 94.5 48 100.5 68 109.5L68 140L-4 140Z" fill="#1baa4e" mask="url(#a-9)"/><path d="M-4 108C24 105 48 111 68 120L68 140L-4 140Z" fill="#158c40" mask="url(#a-10)"/><path d="M86 117C97.13 93.52 80.16 77.88 66 74C59.84 87.32 60.87 110.38 86 117Z" fill="#5ec384" mask="url(#a-11)"/><path d="M108 117C131.46 107.33 128.39 85.61 120 74C106.81 79.59 92.94 96.57 108 117Z" fill="#5ec384" mask="url(#a-12)"/><path d="M97 118C114.29 99 104.27 77.16 93 68C83.33 78.84 76.91 102 97 118Z" fill="#33b463" mask="url(#a-13)"/></g></svg>
